<?xml version="1.0" standalone="no"?>
<!DOCTYPE svg PUBLIC "-//W3C//DTD SVG 20010904//EN"
 "http://www.w3.org/TR/2001/REC-SVG-20010904/DTD/svg10.dtd">
<svg version="1.0" xmlns="http://www.w3.org/2000/svg"
 width="1536.000000pt" height="1024.000000pt" viewBox="0 0 1536.000000 1024.000000"
 preserveAspectRatio="xMidYMid meet">

<g transform="translate(0.000000,1024.000000) scale(0.100000,-0.100000)"
fill="#000000" stroke="none">
<path d="M2195 7124 c-215 -125 -430 -250 -480 -279 -49 -29 -236 -139 -415
-243 -179 -105 -342 -202 -363 -217 -71 -48 -68 9 -65 -1033 3 -861 4 -940 20
-964 9 -14 65 -54 125 -88 59 -35 261 -153 448 -263 1012 -594 1110 -650 1145
-654 25 -4 49 1 76 15 42 21 584 337 1159 674 193 112 380 222 417 242 120 67
108 -55 108 1051 0 946 0 963 -20 988 -11 14 -122 85 -247 158 -126 73 -421
246 -658 384 -755 442 -778 455 -821 455 -33 0 -102 -36 -429 -226z m703 -178
c147 -85 393 -228 547 -318 154 -90 368 -215 475 -278 107 -62 203 -120 212
-128 16 -14 17 -70 15 -861 l-2 -846 -370 -216 c-203 -119 -545 -318 -759
-443 -214 -125 -394 -225 -401 -222 -8 3 -168 96 -357 207 -450 265 -1019 597
-1096 640 l-62 34 0 850 0 851 213 124 c116 68 309 181 427 250 118 69 289
169 380 222 91 53 239 139 329 192 91 53 169 96 174 96 4 0 128 -69 275 -154z"/>
<path d="M2480 6394 c-183 -34 -263 -60 -392 -127 -282 -146 -486 -416 -553
-732 -24 -114 -23 -304 3 -420 71 -318 286 -587 587 -735 172 -85 336 -117
549 -107 221 11 388 65 571 186 75 49 235 196 235 216 0 11 -151 125 -165 125
-4 0 -42 -33 -84 -72 -84 -79 -194 -147 -296 -184 -226 -82 -518 -69 -718 32
-228 116 -396 320 -458 559 -29 113 -29 290 0 400 72 269 266 482 533 585 256
99 567 70 792 -74 l55 -35 70 69 c39 38 71 76 71 85 0 21 -124 100 -231 147
-124 55 -237 78 -404 83 -77 2 -151 2 -165 -1z"/>
<path d="M3690 6047 c-41 -35 -192 -157 -335 -272 -143 -115 -354 -286 -469
-379 -114 -94 -219 -179 -232 -189 l-23 -18 -194 166 c-107 91 -199 165 -204
165 -13 -1 -133 -117 -133 -130 0 -12 519 -560 531 -560 4 0 18 13 31 29 13
15 95 106 183 202 303 328 491 535 674 739 101 113 202 224 224 248 64 70 31
69 -53 -1z"/>
<path d="M5746 6624 c-284 -51 -531 -254 -640 -526 -53 -129 -69 -236 -63
-408 5 -169 28 -255 105 -404 50 -96 154 -216 242 -281 77 -56 202 -114 307
-142 135 -34 345 -37 475 -5 197 48 337 133 455 276 27 33 42 60 37 64 -6 4
-60 42 -122 85 l-111 78 -73 -74 c-111 -112 -242 -167 -398 -167 -111 0 -184
16 -279 62 -206 98 -324 304 -323 563 0 187 52 317 171 435 88 87 148 122 257
150 210 54 415 0 561 -147 l71 -72 121 91 121 90 -39 47 c-170 203 -397 302
-685 300 -61 0 -146 -7 -190 -15z"/>
<path d="M7040 5730 l0 -861 153 3 152 3 3 286 2 287 248 5 c274 5 337 16 456
80 209 111 310 350 262 616 -39 217 -186 365 -417 421 -77 18 -118 20 -471 20
l-388 0 0 -860z m710 579 c124 -20 191 -63 238 -154 21 -41 26 -64 26 -131 0
-105 -33 -178 -103 -229 -76 -55 -130 -65 -359 -65 l-202 0 0 295 0 295 168 0
c92 0 196 -5 232 -11z"/>
<path d="M8645 6548 c-3 -24 -5 -410 -3 -858 l3 -815 150 0 150 0 5 612 5 613
197 -268 c109 -147 314 -423 455 -614 l258 -348 155 3 155 2 1 858 1 857 -153
0 -154 0 -2 -622 -3 -621 -51 69 c-28 38 -207 283 -399 544 -192 261 -375 510
-407 553 l-59 77 -149 0 -149 0 -6 -42z"/>
<path d="M10609 5918 c-1 -370 -3 -740 -4 -823 -2 -82 -1 -167 2 -187 l5 -38
149 0 149 0 0 290 0 290 188 0 c280 0 387 17 517 81 120 59 206 163 250 302
31 96 35 262 9 361 -35 138 -137 262 -266 325 -135 66 -178 71 -610 71 l-388
0 -1 -672z m735 387 c163 -34 244 -140 234 -304 -7 -119 -58 -195 -163 -243
-47 -21 -65 -23 -277 -26 l-228 -3 0 289 c0 159 3 292 7 295 13 14 356 7 427
-8z"/>
<path d="M12848 5960 c-212 -36 -370 -180 -434 -396 -28 -93 -24 -249 9 -342
62 -176 196 -301 374 -347 32 -9 101 -15 158 -15 148 0 269 38 397 123 l48 32
0 223 0 222 -217 -2 -218 -3 -3 -82 -3 -83 131 0 131 0 -3 -92 -3 -93 -70 -35
c-67 -34 -74 -35 -180 -35 -101 0 -115 2 -169 29 -152 75 -226 227 -199 410
13 92 44 157 101 214 126 127 351 137 477 21 23 -22 45 -39 49 -39 13 0 135
105 135 117 1 20 -91 95 -155 125 -108 51 -236 68 -356 48z"/>
<path d="M13680 5411 l0 -531 99 0 99 0 0 48 c-1 26 0 111 1 190 l1 143 86 -3
87 -3 116 -187 116 -188 114 0 c108 0 113 1 99 18 -18 21 -248 377 -248 384 0
3 18 10 39 17 48 14 135 91 161 140 44 87 46 217 4 316 -24 58 -88 119 -157
151 l-62 29 -277 3 -278 3 0 -530z m520 335 c85 -40 115 -146 67 -236 -37 -70
-75 -84 -244 -88 l-143 -4 0 176 0 175 103 3 c133 4 163 0 217 -26z"/>
<path d="M11985 5136 c-17 -7 -43 -28 -58 -45 -22 -27 -27 -42 -27 -88 0 -51
3 -58 39 -94 35 -35 44 -39 90 -39 92 0 151 53 151 135 0 100 -107 172 -195
131z"/>
<path d="M5100 4505 l0 -25 4675 0 4675 0 0 25 0 25 -4675 0 -4675 0 0 -25z"/>
<path d="M5216 4116 c-21 -8 -51 -27 -67 -42 -81 -77 -54 -238 47 -280 64 -27
157 -13 192 29 9 11 8 18 -7 31 -19 17 -21 17 -42 -3 -17 -15 -36 -21 -70 -21
-39 0 -53 5 -77 30 -56 56 -47 153 18 198 41 27 75 28 119 1 30 -18 35 -19 49
-5 13 13 13 18 2 31 -31 37 -106 51 -164 31z"/>
<path d="M8957 4119 c-80 -13 -132 -80 -131 -169 0 -102 55 -161 154 -168 43
-3 69 1 104 17 l47 20 -3 73 -3 73 -62 3 c-62 3 -63 2 -63 -23 0 -23 4 -25 41
-25 l40 0 -3 -37 c-3 -34 -7 -39 -42 -51 -50 -16 -95 -2 -131 39 -46 56 -28
162 35 194 41 21 83 19 114 -6 l28 -22 20 21 20 20 -26 17 c-34 23 -91 33
-139 24z"/>
<path d="M12001 4119 c-49 -10 -76 -41 -76 -88 0 -51 23 -76 89 -97 28 -9 57
-21 64 -27 17 -13 15 -52 -4 -68 -23 -19 -80 -16 -103 5 -16 15 -22 15 -40 4
-28 -17 -27 -25 12 -49 25 -16 44 -19 91 -16 72 4 106 35 106 96 0 48 -25 74
-88 95 -27 9 -58 26 -67 36 -16 18 -17 21 -1 45 19 29 60 33 95 9 21 -15 24
-15 39 0 15 15 15 17 1 32 -22 21 -76 32 -118 23z"/>
<path d="M13621 4120 c-72 -17 -120 -73 -127 -151 -4 -44 -1 -62 18 -98 31
-60 66 -83 131 -89 56 -4 100 10 127 43 11 13 11 19 -3 32 -15 16 -18 15 -39
-4 -38 -35 -103 -34 -141 1 -60 55 -54 159 12 203 41 28 76 29 117 4 25 -15
33 -16 48 -5 45 32 -65 81 -143 64z"/>
<path d="M5570 4101 c-52 -28 -83 -92 -78 -164 5 -61 23 -95 71 -131 39 -29
131 -33 177 -8 118 64 117 246 -2 308 -39 20 -126 18 -168 -5z m146 -40 c21
-13 38 -36 49 -65 17 -43 17 -49 1 -90 -20 -52 -55 -78 -107 -80 -51 -1 -90
30 -108 84 -19 59 -1 115 48 147 41 28 76 29 117 4z"/>
<path d="M5964 4097 c-21 -19 -27 -32 -27 -66 0 -53 15 -69 96 -101 52 -21 62
-29 65 -52 2 -18 -4 -31 -20 -42 -31 -22 -60 -20 -92 5 l-28 22 -20 -21 -21
-21 34 -20 c51 -31 128 -29 168 5 25 21 31 33 31 66 0 58 -13 75 -80 99 -68
25 -83 38 -78 71 5 34 51 47 90 25 29 -17 33 -17 47 -2 15 15 14 18 -8 36 -35
29 -121 26 -157 -4z"/>
<path d="M6272 3954 c3 -165 3 -167 26 -170 22 -4 22 -3 22 123 0 70 4 123 8
118 5 -6 28 -56 52 -112 36 -86 47 -103 65 -103 19 0 29 17 66 110 24 60 47
110 52 110 4 0 7 -55 7 -123 0 -122 0 -124 23 -122 22 2 22 3 25 169 l2 167
-36 -3 c-37 -3 -37 -4 -85 -113 -26 -60 -51 -109 -56 -108 -4 0 -28 50 -54
110 -46 108 -46 108 -83 111 l-36 3 2 -167z"/>
<path d="M6750 3950 l0 -170 105 0 105 0 0 25 c0 25 -1 25 -80 25 l-80 0 0 50
0 50 70 0 c68 0 70 1 70 25 0 24 -2 25 -70 25 l-70 0 0 45 0 45 80 0 c79 0 80
0 80 25 l0 25 -105 0 -105 0 0 -170z"/>
<path d="M7052 4098 c3 -20 10 -23 51 -26 l47 -3 0 -142 0 -142 25 0 25 0 0
143 0 142 50 0 c47 0 50 2 50 25 l0 25 -126 0 c-124 0 -125 0 -122 -22z"/>
<path d="M7410 3950 l0 -170 25 0 25 0 0 170 0 170 -25 0 -25 0 0 -170z"/>
<path d="M7649 4097 c-45 -30 -69 -80 -69 -145 0 -105 52 -163 150 -170 58 -4
103 10 128 41 9 11 8 18 -9 33 -19 17 -21 17 -30 2 -16 -28 -72 -41 -111 -25
-47 20 -70 50 -75 100 -13 110 93 187 171 126 26 -20 29 -21 44 -5 16 16 15
19 -11 42 -39 34 -138 35 -188 1z"/>
<path d="M8156 3960 c1 -89 3 -162 5 -164 2 -2 13 -6 24 -8 18 -3 20 3 23 65
3 62 5 67 25 67 17 0 32 -15 60 -64 31 -52 43 -65 68 -68 35 -5 35 -1 -16 77
-19 31 -35 57 -35 59 0 2 12 7 26 10 37 10 60 68 45 117 -15 50 -57 69 -153
69 l-73 0 1 -160z m162 98 c21 -18 14 -66 -12 -83 -24 -16 -97 -18 -96 -2 0 4
0 28 0 55 l0 47 48 -4 c26 -2 53 -8 60 -13z"/>
<path d="M8510 3950 l0 -171 107 3 c101 3 106 4 109 26 4 21 1 22 -81 22 l-85
0 0 50 0 50 75 0 c73 0 75 1 75 25 0 24 -2 25 -75 25 l-75 0 0 45 0 45 80 0
c79 0 80 0 80 25 l0 25 -105 0 -105 0 0 -170z"/>
<path d="M9250 3996 c0 -69 4 -136 10 -150 22 -58 125 -85 191 -50 47 24 59
66 59 204 l0 120 -25 0 -25 0 0 -119 c0 -110 -2 -122 -22 -146 -24 -27 -46
-33 -89 -22 -39 10 -49 46 -49 172 l0 115 -25 0 -25 0 0 -124z"/>
<path d="M9640 3950 l0 -170 95 0 c95 0 95 0 95 25 0 24 -2 25 -70 25 l-70 0
0 145 0 145 -25 0 -25 0 0 -170z"/>
<path d="M9980 3959 c-36 -89 -66 -166 -68 -170 -2 -5 9 -8 24 -7 21 2 31 11
43 40 l16 38 76 0 76 0 16 -40 c12 -32 20 -40 41 -40 14 0 26 2 26 5 0 3 -30
79 -66 170 -62 155 -68 165 -93 165 -24 0 -30 -10 -91 -161z m122 21 l25 -70
-53 0 c-30 0 -54 3 -54 8 0 15 45 132 51 132 4 0 18 -31 31 -70z"/>
<path d="M10270 4095 c0 -23 3 -25 50 -25 l50 0 0 -142 0 -143 25 -1 25 -2 0
144 0 144 50 0 c47 0 50 2 50 25 l0 25 -125 0 -125 0 0 -25z"/>
<path d="M10684 4111 c-33 -15 -83 -78 -90 -116 -20 -108 38 -199 134 -212 62
-8 108 4 146 40 70 67 73 178 6 250 -36 40 -40 41 -106 44 -38 2 -78 -1 -90
-6z m152 -62 c40 -37 50 -90 29 -144 -20 -54 -52 -78 -104 -78 -102 0 -155
124 -89 208 11 15 30 31 42 36 33 14 96 3 122 -22z"/>
<path d="M11042 3953 l3 -168 25 0 c24 0 25 3 28 68 3 63 4 67 26 67 19 0 32
-15 62 -67 32 -55 45 -69 67 -71 35 -4 34 6 -8 72 -19 30 -35 59 -35 64 0 5
11 14 24 20 34 15 51 71 36 118 -16 47 -56 64 -155 64 l-75 0 2 -167z m166
105 c6 -6 12 -23 12 -39 0 -36 -32 -59 -82 -59 l-38 0 0 58 0 57 48 -4 c26 -2
53 -8 60 -13z"/>
<path d="M11420 4023 c59 -95 60 -99 60 -170 0 -71 1 -73 25 -73 24 0 25 2 25
69 0 66 3 74 48 148 79 127 78 123 43 123 -28 0 -34 -7 -68 -70 -21 -38 -41
-69 -45 -67 -5 1 -25 31 -46 67 -32 56 -42 65 -69 68 l-32 3 59 -98z"/>
<path d="M12260 3950 l0 -171 105 2 c103 1 105 2 105 25 0 23 -2 24 -80 24
l-80 0 0 50 0 50 75 0 c73 0 75 1 75 25 0 24 -2 25 -76 25 l-75 0 3 48 c2 33
7 47 18 48 8 1 43 2 78 2 55 2 62 4 62 22 0 19 -7 20 -105 20 l-105 0 0 -170z"/>
<path d="M12592 3953 c3 -166 3 -168 26 -171 21 -3 22 0 22 67 0 71 0 71 28
71 23 0 33 -10 66 -70 35 -62 43 -70 69 -70 35 0 33 5 -19 87 -26 41 -33 58
-23 62 31 10 59 51 59 86 0 77 -41 105 -155 105 l-75 0 2 -167z m166 99 c35
-45 -6 -96 -75 -90 -37 3 -38 4 -41 47 -2 24 -1 48 1 55 7 17 99 8 115 -12z"/>
<path d="M12915 4103 c4 -10 33 -85 65 -168 51 -134 60 -150 82 -153 20 -2 28
3 36 25 6 15 34 89 63 163 28 74 53 138 56 143 2 4 -9 7 -25 7 -32 0 -28 8
-93 -173 -17 -49 -35 -85 -39 -80 -4 4 -27 63 -50 131 -42 119 -43 122 -72
122 -25 0 -29 -3 -23 -17z"/>
<path d="M13320 3951 l0 -168 25 5 25 4 0 164 0 164 -25 0 -25 0 0 -169z"/>
<path d="M13900 3950 l0 -170 105 0 105 0 0 25 c0 25 -1 25 -80 25 l-80 0 0
50 0 49 73 3 c64 3 72 5 72 23 0 18 -8 20 -72 23 l-73 3 0 44 0 44 78 3 c71 3
77 5 80 26 3 22 2 22 -102 22 l-106 0 0 -170z"/>
<path d="M14257 4100 c-15 -12 -29 -36 -33 -56 -9 -51 17 -82 97 -113 54 -22
64 -30 67 -53 6 -54 -72 -74 -121 -30 -16 15 -19 14 -38 -5 l-20 -20 28 -18
c16 -11 53 -21 83 -23 49 -4 60 -1 88 23 26 22 32 34 32 67 0 58 -13 75 -80
99 -68 25 -83 38 -78 71 5 34 51 47 90 25 29 -17 33 -17 47 -2 15 15 14 18 -8
36 -33 27 -119 26 -154 -1z"/>
</g>
</svg>
